<?xml version="1.0" encoding="UTF-8"?>
<svg width="512px" height="512px" viewBox="0 0 512 512" version="1.1" xmlns="http://www.w3.org/2000/svg" xmlns:xlink="http://www.w3.org/1999/xlink">
    <!-- Generator: Sketch 40.3 (33839) - http://www.bohemiancoding.com/sketch -->
    <title>Group 6</title>
    <desc>Created with Sketch.</desc>
    <defs></defs>
    <g id="Page-1" stroke="none" stroke-width="1" fill="none" fill-rule="evenodd">
        <g id="iPad-Portrait">
            <g id="Group-6">
                <g id="Group-4">
                    <path d="M511.851761,255.92588 C511.851761,397.274897 397.274897,511.851761 255.92588,511.851761 C114.576864,511.851761 0,397.274897 0,255.92588 C0,114.576864 114.576864,0 255.92588,0 C397.274897,0 511.851761,114.576864 511.851761,255.92588" id="Fill-676" fill="#92AF3C"></path>
                    <path d="M368.172329,392.945407 C368.172329,400.312167 362.197191,406.27626 354.830431,406.27626 L157.021329,406.27626 C149.654569,406.27626 143.679431,400.312167 143.679431,392.945407 L143.679431,111.782575 C143.679431,104.415815 149.654569,98.4406771 157.021329,98.4406771 L354.830431,98.4406771 C362.197191,98.4406771 368.172329,104.415815 368.172329,111.782575 L368.172329,392.945407" id="Fill-677" fill="#302A31"></path>
                    <polygon id="Fill-678" fill="#FFFFFF" points="157.915943 383.038385 353.924773 383.038385 353.924773 121.689597 157.915943 121.689597"></polygon>
                    <polygon id="Fill-680" fill="#8AC152" points="175 222.312973 239.456389 222.312973 239.456389 131 175 131"></polygon>
                    <polygon id="Fill-681" fill="#0D0B0E" points="246.339152 172.119322 331.91285 172.119322 331.91285 163.228404 246.339152 163.228404"></polygon>
                    <polygon id="Fill-682" fill="#0D0B0E" points="256.897807 195.169439 321.354195 195.169439 321.354195 186.278521 256.897807 186.278521"></polygon>
                    <polygon id="Fill-683" fill="#0D0B0E" points="182.302459 234.587679 329.549302 234.587679 329.549302 229.584467 182.302459 229.584467"></polygon>
                    <polygon id="Fill-684" fill="#0D0B0E" points="182.302459 249.862385 329.549302 249.862385 329.549302 244.859173 182.302459 244.859173"></polygon>
                    <polygon id="Fill-685" fill="#0D0B0E" points="182.302459 265.148136 329.549302 265.148136 329.549302 260.144924 182.302459 260.144924"></polygon>
                    <polygon id="Fill-686" fill="#0D0B0E" points="182.302459 280.422842 329.549302 280.422842 329.549302 275.41963 182.302459 275.41963"></polygon>
                    <polygon id="Fill-687" fill="#0D0B0E" points="182.302459 295.708593 329.549302 295.708593 329.549302 290.705381 182.302459 290.705381"></polygon>
                    <polygon id="Fill-688" fill="#0D0B0E" points="182.302459 310.983299 329.549302 310.983299 329.549302 305.980087 182.302459 305.980087"></polygon>
                    <polygon id="Fill-689" fill="#0D0B0E" points="182.302459 326.26905 329.549302 326.26905 329.549302 321.265838 182.302459 321.265838"></polygon>
                    <polygon id="Fill-690" fill="#0D0B0E" points="182.302459 341.543756 329.549302 341.543756 329.549302 336.540545 182.302459 336.540545"></polygon>
                    <polygon id="Fill-691" fill="#0D0B0E" points="182.302459 356.829507 329.549302 356.829507 329.549302 351.826295 182.302459 351.826295"></polygon>
                </g>
                <g id="iStock-526956171" transform="translate(182.000000, 132.000000)" fill="#000000">
                    <path d="M31.1309181,78.9798808 L31.1309181,89.915295 L20.0719614,89.915295 L20.0719614,79.3984974 C13.3449824,78.662518 5.36109905,75.9297979 0,71.4073784 L7.29889505,60.9967462 C13.1155605,64.9921168 18.1341654,67.0942673 23.6062883,67.0942673 C29.9915924,67.0942673 32.8425696,64.6770209 32.8425696,59.8395056 C32.8425696,49.007612 2.73995342,49.2169203 2.73995342,30.2881203 C2.73995342,19.9813866 9.35140202,12.8297677 20.0719614,10.8318935 L20.0719614,0 L31.1309181,0 L31.1309181,10.6218296 C38.4302228,11.5682507 43.6749722,14.9334295 48.1224803,19.2454072 L39.6846692,28.0801822 C35.5784262,24.608838 32.0449187,22.8217833 27.2549164,22.8217833 C21.7836129,22.8217833 18.817515,24.8181463 18.817515,29.5521409 C18.817515,39.5422675 48.9201312,38.7001227 48.9201312,58.7884303 C48.9201312,68.8843444 42.8773213,76.6657773 31.1309181,78.9798808 L31.1309181,78.9798808 Z" id="Fill-2"></path>
                </g>
            </g>
        </g>
    </g>
</svg>