<?xml version="1.0" encoding="UTF-8"?>
<svg width="505px" height="505px" viewBox="0 0 505 505" version="1.1" xmlns="http://www.w3.org/2000/svg" xmlns:xlink="http://www.w3.org/1999/xlink">
    <!-- Generator: Sketch 46.2 (44496) - http://www.bohemiancoding.com/sketch -->
    <title>dr</title>
    <desc>Created with Sketch.</desc>
    <defs></defs>
    <g id="Page-1" stroke="none" stroke-width="1" fill="none" fill-rule="evenodd">
        <g id="dr" fill-rule="nonzero">
            <path d="M504.853787,252.426894 C504.853787,391.843404 391.843404,504.864681 252.426894,504.864681 C113.010383,504.864681 0,391.843404 0,252.426894 C0,113.021277 113.010383,0 252.426894,0 C391.843404,0 504.853787,113.021277 504.853787,252.426894" id="Fill-181" fill="#FFF500"></path>
            <path d="M400.198809,337.549617 C400.198809,346.373447 393.041702,353.51966 384.217872,353.51966 L120.635915,353.51966 C111.812085,353.51966 104.665872,346.373447 104.665872,337.549617 L104.665872,164.493617 C104.665872,155.669787 111.812085,148.512681 120.635915,148.512681 L384.217872,148.512681 C393.041702,148.512681 400.198809,155.669787 400.198809,164.493617 L400.198809,337.549617" id="Fill-182" fill="#B5B7B3"></path>
            <path d="M336.961362,251.021617 C336.961362,297.700766 299.116936,335.556085 252.426894,335.556085 C205.736851,335.556085 167.892426,297.700766 167.892426,251.021617 C167.892426,204.331574 205.736851,166.487149 252.426894,166.487149 C299.116936,166.487149 336.961362,204.331574 336.961362,251.021617" id="Fill-183" fill="#DF4A42"></path>
            <polyline id="Fill-184" fill="#F6F4EE" points="316.012936 232.676766 270.771745 232.676766 270.771745 187.435574 234.082043 187.435574 234.082043 232.676766 188.840851 232.676766 188.840851 269.366468 234.082043 269.366468 234.082043 314.60766 270.771745 314.60766 270.771745 269.366468 316.012936 269.366468 316.012936 232.676766"></polyline>
            <path d="M129.546894,148.512681 L120.635915,148.512681 C111.812085,148.512681 104.665872,155.669787 104.665872,164.493617 L104.665872,173.393702 C110.417702,172.391489 116.213106,169.580936 120.962723,164.820426 C125.723234,160.059915 128.544681,154.275404 129.546894,148.512681" id="Fill-185" fill="#DB3438"></path>
            <path d="M375.317787,148.512681 L384.217872,148.512681 C393.041702,148.512681 400.198809,155.669787 400.198809,164.493617 L400.198809,173.393702 C394.436085,172.391489 388.640681,169.580936 383.891064,164.820426 C379.130553,160.059915 376.32,154.275404 375.317787,148.512681" id="Fill-186" fill="#DB3438"></path>
            <path d="M129.546894,353.51966 L120.635915,353.51966 C111.812085,353.51966 104.665872,346.373447 104.665872,337.549617 L104.665872,328.638638 C110.417702,329.640851 116.213106,332.462298 120.962723,337.211915 C125.723234,341.972426 128.544681,347.76783 129.546894,353.51966" id="Fill-187" fill="#DB3438"></path>
            <path d="M375.317787,353.51966 L384.217872,353.51966 C393.041702,353.51966 400.198809,346.373447 400.198809,337.549617 L400.198809,328.638638 C394.436085,329.640851 388.640681,332.462298 383.891064,337.211915 C379.130553,341.972426 376.32,347.76783 375.317787,353.51966" id="Fill-188" fill="#DB3438"></path>
            <path d="M300.347915,150.157617 L284.268936,150.157617 C282.50417,150.157617 281.077106,148.730553 281.077106,146.965787 L281.077106,144.405787 C281.077106,131.126468 265.640851,126.420426 252.426894,126.420426 C239.212936,126.420426 223.787574,131.126468 223.787574,144.405787 L223.787574,146.965787 C223.787574,148.730553 222.349617,150.157617 220.584851,150.157617 L204.505872,150.157617 L204.505872,143.763064 L217.403915,143.763064 C217.796085,129.318128 231.456681,120.025872 252.426894,120.025872 C273.408,120.025872 287.057702,129.318128 287.449872,143.763064 L300.347915,143.763064 L300.347915,150.157617" id="Fill-189" fill="#000105"></path>
            <polygon id="Fill-190" fill="#888B87" points="159.907404 148.512681 177.653106 148.512681 177.653106 141.856681 159.907404 141.856681"></polygon>
            <polygon id="Fill-191" fill="#888B87" points="327.200681 148.512681 344.946383 148.512681 344.946383 141.856681 327.200681 141.856681"></polygon>
        </g>
    </g>
</svg>