<?xml version="1.0" encoding="UTF-8"?>
<svg width="512px" height="512px" viewBox="0 0 512 512" version="1.1" xmlns="http://www.w3.org/2000/svg" xmlns:xlink="http://www.w3.org/1999/xlink">
    <!-- Generator: Sketch 40.3 (33839) - http://www.bohemiancoding.com/sketch -->
    <title>Group 5</title>
    <desc>Created with Sketch.</desc>
    <defs></defs>
    <g id="Page-1" stroke="none" stroke-width="1" fill="none" fill-rule="evenodd">
        <g id="iPad-Portrait">
            <g id="Group-5">
                <path d="M511.785222,255.753888 C511.785222,397.003747 397.219085,511.507776 255.892611,511.507776 C114.566137,511.507776 0,397.003747 0,255.753888 C0,114.504029 114.566137,0 255.892611,0 C397.219085,0 511.785222,114.504029 511.785222,255.753888" id="Fill-749" fill="#99649B"></path>
                <path d="M484.549249,306.42413 L484.549249,306.409188 L484.549249,306.42413 M484.549249,306.035643 C484.549249,306.030663 484.549249,306.035643 484.549249,306.025682 L484.549249,306.035643" id="Fill-750" fill="#BCBCB7"></path>
                <path d="M132.164942,234.573973 C126.160062,237.084196 120.309664,239.1113 114.120401,241.238017 C90.8882427,255.387906 95.7818463,305.906148 96.3947926,357.076848 L158.367149,357.076848 C158.367149,357.076848 160.131238,357.086809 161.018266,357.076848 L161.018266,234.080893 L132.164942,234.573973" id="Fill-769" fill="#D5D090"></path>
                <path d="M83.8468355,357.076848 L96.3947926,357.076848 C96.2502768,344.724956 96.0260282,324.314451 96.0509447,313.257515 L63.5498423,313.257515 C63.6843915,316.968064 63.92359,327.980173 64.3222543,338.334844 C64.7259018,348.809049 73.361966,357.076848 83.8468355,357.076848" id="Fill-770" fill="#F2B680"></path>
                <path d="M114.120401,241.238017 C103.99433,244.714477 92.9762467,248.439967 78.9233321,254.954594 C70.4567003,258.879308 63.6794082,269.179192 63.6794082,286.681026 C63.6794082,294.107103 63.1611446,302.384862 63.5498423,313.257515 L96.0509447,313.257515 C96.1306775,278.527781 98.7120285,251.597669 114.120401,241.238017" id="Fill-771" fill="#F4EFB5"></path>
                <path d="M63.4103098,304.312355 C63.4053265,307.106472 63.4352263,310.059969 63.5498423,313.257515 L96.0509447,313.257515 C96.055928,310.209387 96.0908111,307.240949 96.1456274,304.312355 L63.4103098,304.312355" id="Fill-772" fill="#C2BF85"></path>
                <path d="M189.871591,234.573973 C195.871488,237.084196 201.726869,239.1113 207.916131,241.238017 C230.719726,255.178721 226.254686,305.906148 225.636757,357.076848 L163.669384,357.076848 C163.669384,357.076848 161.905294,357.086809 161.018266,357.076848 L161.018266,234.080893 L189.871591,234.573973" id="Fill-773" fill="#C6C289"></path>
                <path d="M238.189697,357.076848 L225.636757,357.076848 C225.786256,344.724956 226.010504,324.314451 225.985588,313.257515 L258.48669,313.257515 C258.352141,316.968064 258.112943,327.980173 257.714278,338.334844 C257.310631,348.809049 248.674567,357.076848 238.189697,357.076848" id="Fill-774" fill="#F2B680"></path>
                <path d="M207.916131,241.238017 C218.042203,244.714477 229.060286,248.439967 243.1132,254.954594 C251.579832,258.879308 258.357124,269.179192 258.357124,286.681026 C258.357124,294.107103 258.875388,302.384862 258.48669,313.257515 L225.985588,313.257515 C225.905855,278.527781 223.319521,251.597669 207.916131,241.238017" id="Fill-775" fill="#E4E0AB"></path>
                <path d="M258.626223,304.312355 C258.631206,307.106472 258.601306,310.059969 258.48669,313.257515 L225.985588,313.257515 C225.980605,310.209387 225.940738,307.240949 225.890905,304.312355 L258.626223,304.312355" id="Fill-776" fill="#B5B480"></path>
                <path d="M135.369206,201.029621 C136.171517,209.128079 134.835992,228.09421 132.164942,234.573973 C138.842568,244.520234 149.795868,251.687319 161.018266,251.687319 C172.240665,251.687319 183.193965,244.520234 189.871591,234.573973 C187.20054,228.09421 185.865015,209.128079 186.667327,201.029621 L135.369206,201.029621" id="Fill-777" fill="#F2B680"></path>
                <path d="M200.819908,170.065222 C204.552402,164.183131 210.308117,165.194193 209.431055,176.285993 C208.992525,181.879208 203.012561,197.866939 197.650527,190.42094 C198.278423,180.942855 200.819908,170.065222 200.819908,170.065222" id="Fill-778" fill="#F2B680"></path>
                <path d="M121.216625,170.065222 C117.484131,164.183131 111.728416,165.194193 112.605477,176.285993 C113.044008,181.879208 119.023972,197.866939 124.381022,190.42094 C123.75811,180.942855 121.216625,170.065222 121.216625,170.065222" id="Fill-779" fill="#F2B680"></path>
                <path d="M161.018266,233.14454 C171.782201,233.14454 180.293682,227.391945 186.831776,218.496591 C186.383279,211.802662 186.298563,205.153559 186.667327,201.029621 L135.369206,201.029621 C135.73797,205.153559 135.653254,211.802662 135.204757,218.501571 C141.74285,227.391945 150.249348,233.14454 161.018266,233.14454" id="Fill-780" fill="#C3844E"></path>
                <path d="M161.018266,230.82358 C189.049346,230.82358 200.97439,192.766803 203.495941,163.939082 C204.990932,146.810793 193.31007,120.553062 161.018266,120.553062 C128.721479,120.553062 117.0456,146.810793 118.540591,163.939082 C121.062143,192.766803 132.987187,230.82358 161.018266,230.82358" id="Fill-781" fill="#F2B680"></path>
                <path d="M161.018266,137.880575 C144.857415,137.377534 137.462193,130.97248 131.716444,132.571253 C125.970696,134.175007 123.69831,150.501419 128.248066,160.313204 C121.306324,166.424402 123.902625,181.869247 124.381022,184.274878 C123.723226,184.37449 123.06543,184.324684 121.809638,184.324684 C118.445909,174.413287 117.289782,157.623679 117.509048,151.681821 C118.276476,130.927655 136.580148,115.891219 161.018266,115.891219 C185.456384,115.891219 203.755073,130.927655 204.522502,151.681821 C204.741767,157.623679 203.585641,174.413287 200.226895,184.324684 C198.971102,184.324684 198.313306,184.37449 197.650527,184.274878 C198.133907,181.869247 200.730208,166.424402 193.788467,160.313204 C198.338223,150.501419 196.060853,134.175007 190.315105,132.571253 C184.57434,130.97248 177.179118,138.383615 161.018266,137.880575" id="Fill-782" fill="#5F483B"></path>
                <path d="M132.164942,234.573973 C128.736429,236.008386 125.352767,237.28342 121.934221,238.508648 L123.379379,240.466024 C132.40414,253.913648 146.830803,262.266117 161.018266,262.266117 L161.018266,251.687319 C149.795868,251.687319 138.842568,244.520234 132.164942,234.573973" id="Fill-783" fill="#F4EFB5"></path>
                <path d="M189.871591,234.573973 C183.193965,244.520234 172.240665,251.687319 161.018266,251.687319 L161.018266,262.266117 C175.20573,262.266117 189.627409,253.913648 198.657154,240.466024 L200.102312,238.508648 C196.683766,237.28342 193.300103,236.008386 189.871591,234.573973" id="Fill-784" fill="#E4E0AB"></path>
                <path d="M291.446257,303.879043 C291.446257,296.587442 294.969452,289.744096 300.914532,285.515565 C307.617075,280.744149 311.384452,278.722024 320.090282,274.747504 C322.392568,273.656753 334.521928,269.149308 336.679698,268.128285 C340.666341,273.328033 360.599553,305.378204 366.948281,309.870706 L366.948281,357.081828 L310.258226,357.081828 C298.652113,357.081828 290.648928,348.101804 290.648928,336.506963 L291.446257,303.879043" id="Fill-785" fill="#E15B51"></path>
                <path d="M349.272505,235.4655 C349.247588,239.086397 349.561537,244.385758 349.108056,249.660215 C348.699425,254.366883 347.672865,259.05861 345.231046,262.535069 C342.480263,264.641864 339.604897,266.474725 336.679698,268.128285 L336.669732,268.452024 C336.669732,281.296995 350.234282,314.004606 366.948281,314.024528 L366.948281,235.4655 L349.272505,235.4655" id="Fill-786" fill="#F2B680"></path>
                <path d="M442.450305,303.879043 C442.450305,296.587442 438.92711,289.744096 432.982029,285.515565 C426.279487,280.744149 422.51211,278.722024 413.806279,274.747504 C411.503993,273.656753 399.379617,269.149308 397.221847,268.128285 C393.230221,273.328033 373.297009,305.378204 366.948281,309.870706 L366.948281,357.081828 L423.643319,357.081828 C435.244449,357.081828 443.247634,348.101804 443.247634,336.506963 L442.450305,303.879043" id="Fill-787" fill="#D5443B"></path>
                <path d="M417.478974,316.743936 C410.073785,309.681443 409.705021,287.761816 410.492383,273.372858 C412.01229,273.975511 413.223233,274.468591 413.806279,274.747504 C422.51211,278.722024 426.279487,280.744149 432.982029,285.515565 C438.92711,289.744096 442.450305,296.587442 442.455288,303.879043 L443.247634,336.506963 C443.247634,348.101804 435.244449,357.081828 423.643319,357.081828 L411.892691,357.081828 C419.437412,347.454325 417.155059,322.914902 417.478974,316.743936" id="Fill-788" fill="#F2B680"></path>
                <path d="M384.624057,235.4655 C384.653957,239.086397 384.335025,244.385758 384.788506,249.660215 C385.197137,254.366883 386.223697,259.05861 388.665515,262.535069 C391.421282,264.641864 394.296648,266.474725 397.221847,268.128285 L397.22683,268.452024 C397.22683,281.296995 383.667263,314.004606 366.948281,314.024528 L366.948281,235.4655 L384.624057,235.4655" id="Fill-789" fill="#F2B680"></path>
                <path d="M349.317355,245.869977 C354.260791,249.889322 360.091256,252.27503 366.350285,252.225224 C373.257143,252.165457 378.250412,249.949089 384.549307,244.211436 C384.434691,232.890529 387.87317,235.4655 349.272505,235.4655 C349.252572,238.130122 349.426987,242.024952 349.317355,245.869977" id="Fill-790" fill="#C3844E"></path>
                <path d="M338.393954,228.248609 L338.209572,228.054365 C343.711139,240.884395 354.250825,249.560602 366.350285,249.560602 C372.414964,249.560602 378.090946,247.379099 382.929734,243.588861 C382.461303,243.768163 381.987889,243.947465 381.509492,244.111824 C380.801863,234.877789 392.721924,211.917216 398.253391,201.796634 L398.253391,201.786673 C396.17037,201.10433 361.880262,197.299151 346.162924,174.981075 C342.520129,174.179198 339.679647,174.652356 338.184656,177.127715 C334.093364,190.605222 330.380803,214.038952 338.393954,228.248609" id="Fill-791" fill="#F2B680"></path>
                <path d="M338.209572,228.054365 L338.393954,228.248609 C331.247898,209.531508 336.101635,179.378946 346.162924,174.981075 C361.880262,197.299151 396.17037,201.10433 398.253391,201.786673 L398.253391,201.791653 C392.721924,211.912236 380.801863,234.877789 381.509492,244.111824 C381.987889,243.947465 382.461303,243.768163 382.929734,243.588861 C407.158553,234.22533 420.74802,205.168501 415.864383,174.971114 C410.891047,144.186016 383.647329,134.951981 364.217431,142.766545 C348.819024,135.903276 333.894032,143.712859 325.836031,155.551749 C312.924293,174.532821 318.694958,207.907832 338.209572,228.054365" id="Fill-792" fill="#5F483B"></path>
                <path d="M363.659301,146.397403 C362.159327,147.214222 361.411831,147.77703 361.242399,149.609891 C361.127783,148.145594 360.245738,145.231942 360.116172,143.767646 C360.300555,140.430643 358.81553,138.308906 355.825549,137.282902 C358.730814,137.352631 360.898551,138.652568 361.880262,141.232519 C361.790562,137.731156 363.445019,134.234774 366.205769,132.078174 C364.536362,135.450041 365.144325,138.742219 365.782188,141.008392 C366.534667,138.393576 370.262177,135.968024 375.459762,137.701273 C370.954857,138.567898 367.875175,141.137888 367.486478,143.767646 C367.346945,144.71894 367.317045,144.758785 366.420051,145.142292 C365.49814,145.54074 364.541346,145.914285 363.659301,146.397403" id="Fill-793" fill="#5F483B"></path>
                <path d="M316.417588,316.743936 C323.822776,309.681443 324.196524,287.761816 323.404179,273.372858 C321.884272,273.975511 320.673329,274.468591 320.090282,274.747504 C311.384452,278.722024 307.617075,280.744149 300.914532,285.515565 C294.969452,289.744096 291.446257,296.587442 291.446257,303.879043 L290.648928,336.506963 C290.648928,348.101804 298.652113,357.081828 310.253242,357.081828 L322.003871,357.081828 C314.464133,347.454325 316.741503,322.914902 316.417588,316.743936" id="Fill-794" fill="#F2B680"></path>
                <path d="M274.567809,219.303448 C273.396733,219.945946 272.813687,220.384239 272.679137,221.818652 C272.589438,220.673114 271.896759,218.391998 271.797093,217.24646 C271.941609,214.636625 270.780499,212.973104 268.438347,212.171227 C270.710733,212.226013 272.410039,213.242056 273.177468,215.2592 C273.107701,212.519869 274.40336,209.780538 276.56113,208.097095 C275.255505,210.731833 275.733902,213.311785 276.232232,215.084879 C276.820262,213.037852 279.735494,211.140242 283.806853,212.499947 C280.278675,213.177308 277.866756,215.189471 277.562774,217.24646 C277.453142,217.99355 277.433208,218.018453 276.730563,218.32227 C276.007984,218.636048 275.260488,218.929903 274.567809,219.303448" id="Fill-795" fill="#5F483B"></path>
                <path d="M244.717824,255.3381 C242.11654,251.652455 238.020265,251.831757 238.548495,258.336422 C238.817593,261.613658 242.928818,271.330812 246.790878,267.391156 C246.427097,261.837785 244.717824,255.3381 244.717824,255.3381" id="Fill-796" fill="#F7C99C"></path>
                <path d="M274.423293,219.726799 C257.609629,219.726799 243.985279,235.101916 243.985279,254.068047 C243.985279,273.034177 262.034802,291.113761 274.423293,291.113761 C286.816768,291.113761 304.861308,273.034177 304.861308,254.068047 C304.861308,235.101916 291.236958,219.726799 274.423293,219.726799" id="Fill-797" fill="#F2B680"></path>
                <path d="M253.249239,304.720764 C248.300819,308.087651 240.656432,308.605634 233.81934,315.907195 C229.698149,320.305067 229.962264,335.077531 231.113407,346.353613 C231.73632,352.45983 236.879088,357.081828 243.018518,357.081828 L274.423293,357.081828 L274.423293,297.274765 L253.249239,304.720764" id="Fill-798" fill="#DB2D54"></path>
                <path d="M243.018518,357.081828 L244.932106,357.081828 C245.320804,349.755363 244.583275,335.495901 244.194577,330.43561 C246.427097,326.276808 245.878934,314.657064 245.599869,308.281894 C241.837475,309.81592 237.701333,311.758354 233.81934,315.907195 C229.698149,320.305067 229.962264,335.077531 231.113407,346.353613 C231.73632,352.45983 236.879088,357.081828 243.018518,357.081828" id="Fill-799" fill="#F7C99C"></path>
                <path d="M262.059719,275.255526 C262.039785,278.527781 262.264034,283.304178 261.945103,288.060652 C261.661054,292.309105 261.381989,296.82153 259.234186,299.675415 C257.604646,301.836996 255.297376,303.231565 253.249239,304.720764 L253.244256,305.01462 C253.244256,316.599499 262.732465,324.872278 274.423293,324.892201 L274.423293,275.255526 L262.059719,275.255526" id="Fill-800" fill="#F7C99C"></path>
                <path d="M253.274155,305.01462 L253.279139,304.720764 C252.192779,305.457893 250.961903,306.050585 249.656277,306.618374 C250.488489,319.244198 260.79396,328.632632 274.423293,328.662516 L274.423293,324.892201 C262.742431,324.857336 253.274155,316.589538 253.274155,305.01462" id="Fill-801" fill="#E67492"></path>
                <path d="M295.597348,304.720764 C300.545768,308.087651 308.190155,308.605634 315.027247,315.907195 C319.148438,320.305067 318.889306,335.077531 317.73318,346.353613 C317.110267,352.45983 311.967499,357.081828 305.828069,357.081828 L274.423293,357.081828 L274.423293,297.274765 L295.597348,304.720764" id="Fill-802" fill="#D32042"></path>
                <path d="M305.828069,357.081828 L303.914481,357.081828 C303.530766,349.755363 304.263312,335.495901 304.65201,330.43561 C302.41949,326.276808 302.967653,314.657064 303.246718,308.281894 C307.014095,309.81592 311.145254,311.758354 315.027247,315.907195 C319.148438,320.305067 318.889306,335.077531 317.73318,346.353613 C317.110267,352.45983 311.967499,357.081828 305.828069,357.081828" id="Fill-803" fill="#F7C99C"></path>
                <path d="M286.786868,275.255526 C286.806801,278.527781 286.582553,283.304178 286.901484,288.060652 C287.190516,292.309105 287.464597,296.82153 289.612401,299.675415 C291.241941,301.836996 293.54921,303.231565 295.597348,304.720764 L295.602331,305.01462 C295.602331,316.599499 286.114122,324.872278 274.423293,324.892201 L274.423293,275.255526 L286.786868,275.255526" id="Fill-804" fill="#F7C99C"></path>
                <path d="M295.577415,305.01462 L295.572432,304.720764 C296.653808,305.457893 297.884684,306.050585 299.195293,306.618374 C298.358098,319.244198 288.052627,328.632632 274.423293,328.662516 L274.423293,324.892201 C286.104156,324.857336 295.577415,316.589538 295.577415,305.01462" id="Fill-805" fill="#DA5977"></path>
                <path d="M274.423293,292.9267 C278.375053,292.9267 282.750393,291.058974 286.896501,287.891312 C286.592519,283.189624 286.806801,278.487936 286.786868,275.255526 L262.059719,275.255526 C262.039785,278.487936 262.254067,283.194605 261.950086,287.896292 C266.096194,291.058974 270.466551,292.9267 274.423293,292.9267" id="Fill-806" fill="#C3844E"></path>
                <path d="M243.985279,254.068047 C243.985279,273.034177 262.034802,291.113761 274.423293,291.113761 L274.423293,219.726799 C257.609629,219.726799 243.985279,235.101916 243.985279,254.068047" id="Fill-807" fill="#F7C99C"></path>
                <path d="M274.423293,215.742318 L274.423293,244.729419 C265.647697,253.520181 255.177777,252.972315 244.069995,251.642494 C244.025145,252.424448 243.980295,253.246248 243.980295,254.073027 L243.980295,254.481437 C241.463727,251.737125 238.080064,252.374642 238.538528,258.331442 C238.81261,261.578794 242.928818,271.335792 246.810811,267.351311 C248.001821,270.235079 249.511762,272.984371 251.245951,275.499575 C240.322551,270.005972 236.206342,261.857708 236.206342,253.659638 C236.206342,233.787037 254.17115,215.742318 274.423293,215.742318" id="Fill-808" fill="#5F483B"></path>
                <path d="M304.133746,255.3381 C306.730047,251.652455 310.826322,251.831757 310.298092,258.336422 C310.033977,261.613658 305.922752,271.330812 302.055709,267.391156 C302.41949,261.837785 304.133746,255.3381 304.133746,255.3381" id="Fill-809" fill="#F7C99C"></path>
                <path d="M304.861308,254.068047 C304.861308,273.034177 286.816768,291.113761 274.423293,291.113761 L274.423293,219.726799 C291.236958,219.726799 304.861308,235.101916 304.861308,254.068047" id="Fill-810" fill="#F7C99C"></path>
                <path d="M274.423293,215.742318 L274.423293,244.729419 C283.19889,253.520181 293.66881,252.972315 304.776592,251.642494 C304.821442,252.424448 304.871275,253.246248 304.871275,254.073027 L304.871275,254.481437 C307.38286,251.737125 310.766522,252.374642 310.308059,258.331442 C310.033977,261.578794 305.922752,271.335792 302.035776,267.351311 C300.844766,270.235079 299.339809,272.984371 297.600636,275.499575 C308.524036,270.005972 312.640244,261.857708 312.640244,253.659638 C312.640244,233.787037 294.675437,215.742318 274.423293,215.742318" id="Fill-811" fill="#5F483B"></path>
                <path d="M329.443942,258.904211 C327.804436,256.931893 326.708109,254.605952 326.334361,252.793013 C325.960613,250.975093 326.04533,249.769788 326.04533,249.769788 C326.04533,249.769788 326.219745,250.985055 326.927374,252.598769 C327.635003,254.217465 329.070195,256.08021 330.84425,257.479759 C331.611679,258.07245 332.428941,258.540627 333.231253,258.963978 C333.002021,253.550064 335.518589,248.693978 335.757787,243.260142 C336.031869,237.148943 333.869115,231.092532 329.284477,226.928749 C319.626835,218.16289 306.16195,224.572925 302.698555,235.729472 C302.40454,237.114079 302.289924,238.35923 302.255041,239.260719 C302.334774,241.113502 302.499223,242.219196 302.499223,242.219196 C302.499223,242.219196 303.421134,241.59164 304.836392,240.396296 C310.00906,236.680767 317.135184,233.274036 319.861051,241.153347 C322.028787,247.408983 321.291258,255.621995 327.286172,259.980021 C328.447282,261.035908 329.727991,261.528988 330.704718,261.897552 C331.611679,262.161524 332.528607,262.286039 333.460484,262.335845 C332.060176,261.434357 330.644918,260.318702 329.443942,258.904211" id="Fill-812" fill="#5F483B"></path>
                <path d="M219.402645,258.904211 C221.042151,256.931893 222.138478,254.605952 222.512226,252.793013 C222.885973,250.975093 222.801257,249.769788 222.801257,249.769788 C222.801257,249.769788 222.626842,250.985055 221.919213,252.598769 C221.211584,254.217465 219.776392,256.08021 218.002337,257.479759 C217.234908,258.07245 216.417646,258.540627 215.615334,258.963978 C215.84955,253.550064 213.327998,248.693978 213.0888,243.260142 C212.814718,237.148943 214.977472,231.092532 219.567094,226.928749 C229.219752,218.16289 242.684636,224.572925 246.148032,235.729472 C246.442047,237.114079 246.556663,238.35923 246.591546,239.260719 C246.511813,241.113502 246.352347,242.219196 246.352347,242.219196 C246.352347,242.219196 245.425453,241.59164 244.010195,240.396296 C238.837526,236.680767 231.711403,233.274036 228.985536,241.153347 C226.8178,247.408983 227.555328,255.621995 221.565398,259.980021 C220.399305,261.035908 219.12358,261.528988 218.146852,261.897552 C217.234908,262.161524 216.322963,262.286039 215.391086,262.335845 C216.786411,261.434357 218.201669,260.318702 219.402645,258.904211" id="Fill-813" fill="#5F483B"></path>
            </g>
        </g>
    </g>
</svg>