<?xml version="1.0" encoding="UTF-8"?>
<svg width="510px" height="511px" viewBox="0 0 510 511" version="1.1" xmlns="http://www.w3.org/2000/svg" xmlns:xlink="http://www.w3.org/1999/xlink">
    <!-- Generator: Sketch 46.2 (44496) - http://www.bohemiancoding.com/sketch -->
    <title>Group</title>
    <desc>Created with Sketch.</desc>
    <defs></defs>
    <g id="Page-1" stroke="none" stroke-width="1" fill="none" fill-rule="evenodd">
        <g id="Group" transform="translate(0.000000, -1.000000)">
            <path d="M509.975275,256.490711 C509.975275,397.295112 395.839874,511.430513 255.035472,511.430513 C114.23107,511.430513 0.0956694836,397.295112 0.0956694836,256.490711 C0.0956694836,115.686309 114.23107,1.5399061 255.035472,1.5399061 C395.839874,1.5399061 509.975275,115.686309 509.975275,256.490711" id="Fill-818" fill="#74AAEF"></path>
            <path d="M255.037672,429.39033 L326.771123,501.123781 C430.333541,470.802095 506.511825,376.580428 509.79044,264.00732 L394.906899,149.134781 L255.037672,429.39033 Z" id="Fill-819"></path>
            <path d="M374.960158,298.88386 C383.145693,307.058392 383.145693,320.32688 374.960158,328.501413 C366.785626,336.675946 353.52814,336.675946 345.353607,328.501413 C342.636098,325.783904 340.908774,322.483285 339.995602,319.006633 L323.063428,319.006633 C320.99504,319.006633 319.113687,317.807408 318.244524,315.937057 L315.758058,310.623061 L312.765497,314.825849 C311.632284,316.399144 309.706923,317.257305 307.814568,317.015259 C305.889207,316.784216 304.238898,315.529981 303.50176,313.725643 L291.366484,283.712015 L281.310599,313.912678 C280.7825,315.463968 279.572273,316.685197 278.031984,317.235301 C276.480693,317.796406 274.764371,317.598369 273.389113,316.6962 L268.174136,313.373577 L259.097434,377.812659 C258.723364,380.442152 256.478943,382.378515 253.838448,382.378515 L253.706423,382.378515 C251.010917,382.312503 248.788501,380.244115 248.535453,377.559612 L234.419806,226.468281 L220.568209,313.54961 C220.238147,315.651004 218.686856,317.345321 216.629471,317.862418 C214.561083,318.390517 212.404679,317.631375 211.106435,315.970063 L202.898896,305.331069 L194.43831,316.37714 C193.437122,317.675383 191.885831,318.45653 190.235522,318.45653 L7.71129745,318.45653 C35.4034899,429.302314 135.610279,511.432714 255.037672,511.432714 C345.287595,511.432714 424.51345,464.497913 469.819945,393.743646 L374.960158,298.88386 Z" id="Fill-821"></path>
            <path d="M400.330916,155.075895 C360.118376,107.139907 299.276968,125.293311 255.037672,178.565299 L255.037672,429.39033 C279.682293,402.754336 305.63616,377.449591 330.280781,349.493349 C371.791564,305.55111 454.813131,218.997881 400.330916,155.075895" id="Fill-823" fill="#EF4136"></path>
            <path d="M109.743329,155.075895 C55.2611133,218.997881 138.28268,305.55111 179.793464,349.493349 C204.438085,377.449591 230.391951,402.754336 255.036572,429.39033 L255.036572,178.565299 C210.797277,125.293311 149.955869,107.139907 109.743329,155.075895" id="Fill-824" fill="#CC382F"></path>
            <path d="M253.832947,382.380716 L253.700922,382.380716 C251.005416,382.314703 248.783,380.246315 248.540954,377.561812 L234.414305,226.470482 L220.57371,313.55181 C220.232646,315.653204 218.692357,317.347522 216.62397,317.864619 C214.566584,318.392718 212.399177,317.633575 211.100934,315.972264 L202.893395,305.333269 L194.443811,316.37934 C193.442623,317.677584 191.88033,318.447728 190.241023,318.447728 L7.67279023,318.447728 L5.26333845,307.830737 L187.589526,307.830737 L198.657601,293.385029 C199.658789,292.075783 201.221082,291.316641 202.871391,291.316641 C204.532702,291.316641 206.083993,292.075783 207.085181,293.363024 L211.992101,299.722217 L230.530577,183.166362 C230.959658,180.503863 233.314099,178.611508 235.965596,178.67752 C238.639098,178.765537 240.828508,180.833925 241.081556,183.507426 L254.900147,331.36415 L258.794877,303.682959 C259.058926,301.889623 260.203141,300.349334 261.85345,299.601194 C263.50376,298.83105 265.418119,298.963074 266.936403,299.95326 L273.37261,304.068032 L285.837948,266.661018 C286.553082,264.548622 288.489445,263.096349 290.722864,263.030337 C292.747243,263.107351 294.980662,264.295574 295.805817,266.35296 L309.723426,300.756411 L312.385926,297.004707 C313.497134,295.475421 315.34548,294.639264 317.215831,294.793293 C319.097184,294.969326 320.747493,296.124542 321.539642,297.851866 L326.457564,308.369838 L352.73049,308.369838 L352.73049,319.008833 L323.057927,319.008833 C320.989539,319.008833 319.119188,317.809608 318.239023,315.939258 L315.763559,310.625261 L312.759996,314.817047 C311.637785,316.401344 309.701422,317.259505 307.809067,317.01746 C305.883706,316.786416 304.233397,315.532181 303.507261,313.727843 L291.360983,283.714215 L281.305098,313.903876 C280.776999,315.466169 279.577774,316.687398 278.026483,317.237501 C276.486194,317.798606 274.75887,317.600569 273.383612,316.6984 L268.179637,313.375777 L259.102935,377.81486 C258.717862,380.444353 256.473442,382.380716 253.832947,382.380716" id="Fill-825" fill="#FCF5C7"></path>
        </g>
    </g>
</svg>