<?xml version="1.0" encoding="UTF-8"?>
<svg width="505px" height="505px" viewBox="0 0 505 505" version="1.1" xmlns="http://www.w3.org/2000/svg" xmlns:xlink="http://www.w3.org/1999/xlink">
    <!-- Generator: Sketch 40.3 (33839) - http://www.bohemiancoding.com/sketch -->
    <title>Group 3</title>
    <desc>Created with Sketch.</desc>
    <defs></defs>
    <g id="Page-1" stroke="none" stroke-width="1" fill="none" fill-rule="evenodd">
        <g id="iPad-Portrait">
            <g id="Group-3">
                <path d="M504.853787,252.437787 C504.853787,391.843404 391.843404,504.864681 252.426894,504.864681 C113.010383,504.864681 0,391.843404 0,252.437787 C0,113.021277 113.010383,0 252.426894,0 C391.843404,0 504.853787,113.021277 504.853787,252.437787" id="Fill-163" fill="#33B5B2"></path>
                <path d="M144.667234,277.754553 C144.667234,247.56834 169.134298,223.101277 199.320511,223.101277 L368.966809,223.101277 C399.153021,223.101277 423.620085,247.56834 423.620085,277.754553 C423.620085,307.940766 399.153021,332.40783 368.966809,332.40783 L199.320511,332.40783 C169.134298,332.40783 144.667234,307.940766 144.667234,277.754553" id="Fill-164" fill="#D6DBD4"></path>
                <path d="M265.117957,277.754553 C265.117957,307.940766 289.595915,332.40783 319.771234,332.40783 L368.966809,332.40783 C399.153021,332.40783 423.620085,307.940766 423.620085,277.754553 C423.620085,247.56834 399.153021,223.101277 368.966809,223.101277 L319.771234,223.101277 C289.595915,223.101277 265.117957,247.56834 265.117957,277.754553" id="Fill-165" fill="#DA5C3F"></path>
                <path d="M394.272681,269.497191 C390.165787,254.420426 382.07183,247.110809 386.069787,241.250043 C389.686468,235.138723 409.011745,242.208681 414.513021,263.854298 C419.796426,285.554383 406.026894,300.859915 399.980936,297.145191 C393.695319,293.855319 398.368681,284.584851 394.272681,269.497191" id="Fill-166" fill="#DF6F54"></path>
                <path d="M313.147915,332.40783 L319.771234,332.40783 C289.595915,332.40783 265.117957,307.940766 265.117957,277.754553 C265.117957,247.56834 289.595915,223.101277 319.771234,223.101277 L313.147915,223.101277 C282.961702,223.101277 259.812766,247.56834 259.812766,277.754553 C259.812766,307.940766 282.961702,332.40783 313.147915,332.40783" id="Fill-167" fill="#B1B6B1"></path>
                <path d="M174.461277,188.056511 L173.524426,188.775489 C170.528681,224.462979 198.623319,261.664681 233.777021,268.538553 L234.713872,267.830468 C237.709617,232.132085 209.614979,194.930383 174.461277,188.056511" id="Fill-168" fill="#A52730"></path>
                <path d="M258.124255,124.862638 L174.461277,188.056511 C209.614979,194.930383 237.709617,232.132085 234.713872,267.830468 L318.376851,204.636596 C340.403745,187.991149 344.772085,156.650213 328.137532,134.623319 C311.492085,112.596426 280.151149,108.228085 258.124255,124.862638" id="Fill-169" fill="#DA5C3F"></path>
                <path d="M180.180426,189.44 L99.2953191,250.542298 C79.2619574,265.662638 75.2966809,294.16034 90.4170213,314.182809 C105.548255,334.205277 134.045957,338.181447 154.068426,323.050213 L234.953532,261.947915 C234.648511,230.105872 210.726128,198.438128 180.180426,189.44" id="Fill-170" fill="#E7ECE5"></path>
            </g>
        </g>
    </g>
</svg>