<?xml version="1.0" encoding="UTF-8"?>
<svg width="505px" height="495px" viewBox="0 0 505 495" version="1.1" xmlns="http://www.w3.org/2000/svg" xmlns:xlink="http://www.w3.org/1999/xlink">
    <!-- Generator: Sketch 40.3 (33839) - http://www.bohemiancoding.com/sketch -->
    <title>Group</title>
    <desc>Created with Sketch.</desc>
    <defs></defs>
    <g id="Page-1" stroke="none" stroke-width="1" fill="none" fill-rule="evenodd">
        <g id="iPad-Portrait" transform="translate(-7.000000, -9.000000)">
            <g id="Group">
                <path d="M512,256.192 C512,392.693333 398.978723,503.36 259.573106,503.36 C120.156596,503.36 7.13531915,392.693333 7.13531915,256.192 C7.13531915,119.68 120.156596,9.01333333 259.573106,9.01333333 C398.978723,9.01333333 512,119.68 512,256.192" id="Fill-473" fill="#E44646"></path>
                <path d="M223.47166,366.016 C223.47166,366.016 221.630638,366.4 221.630638,370.453333 C221.630638,374.506667 222.251574,376.053333 228.395574,376.245333 C234.528681,376.437333 239.289191,376.821333 247.895149,383.189333 C256.490213,389.557333 258.636255,366.208 249.431149,366.016 C240.215149,365.824 223.47166,366.016 223.47166,366.016" id="Fill-474" fill="#E4E1D3"></path>
                <path d="M296.785702,366.016 C296.785702,366.016 298.626723,366.4 298.626723,370.453333 C298.626723,374.506667 298.016681,376.053333 291.872681,376.245333 C285.728681,376.437333 280.96817,376.821333 272.373106,383.189333 C263.767149,389.557333 261.621106,366.208 270.837106,366.016 C280.042213,365.824 296.785702,366.016 296.785702,366.016" id="Fill-475" fill="#E4E1D3"></path>
                <path d="M240.36766,364.661333 C241.446128,361.386667 249.877787,362.549333 260.019745,362.933333 C270.161702,363.317333 279.987745,359.072 276.610723,370.069333 C273.233702,381.066667 242.306723,377.589333 241.184681,371.765333 C241.184681,371.765333 239.289191,367.946667 240.36766,364.661333" id="Fill-476" fill="#E4E1D3"></path>
                <path d="M277.536681,368.074667 C272.62366,369.621333 266.065702,370.517333 260.128681,370.517333 C254.19166,370.517333 247.633702,369.621333 242.720681,368.074667 C237.80766,366.528 240.269617,370.389333 240.269617,370.389333 C240.269617,370.389333 243.95166,374.762667 243.341617,381.706667 C242.720681,388.650667 240.269617,389.173333 242.92766,392.256 C244.518128,394.101333 252.14366,395.456 260.128681,395.733333 C268.113702,396.010667 275.750128,394.101333 277.329702,392.256 C279.998638,389.173333 277.536681,388.650667 276.926638,381.706667 C276.305702,374.762667 279.998638,370.389333 279.998638,370.389333 C279.998638,370.389333 282.449702,366.528 277.536681,368.074667" id="Fill-477" fill="#E4E1D3"></path>
                <path d="M224.419404,337.504 C224.419404,337.504 222.621957,337.877333 222.621957,341.824 C222.621957,345.770667 223.221106,347.274667 229.212596,347.466667 C235.193191,347.648 239.833872,348.032 248.211064,354.229333 C256.588255,360.437333 258.67983,337.696 249.703489,337.504 C240.727149,337.312 224.419404,337.504 224.419404,337.504" id="Fill-478" fill="#E4E1D3"></path>
                <path d="M295.837957,337.504 C295.837957,337.504 297.635404,337.877333 297.635404,341.824 C297.635404,345.770667 297.036255,347.274667 291.05566,347.466667 C285.06417,347.648 280.434383,348.032 272.057191,354.229333 C263.68,360.437333 261.577532,337.696 270.553872,337.504 C279.530213,337.312 295.837957,337.504 295.837957,337.504" id="Fill-479" fill="#E4E1D3"></path>
                <path d="M240.87966,336.192 C241.925447,332.992 250.139234,334.122667 260.019745,334.496 C269.900255,334.869333 279.475745,330.741333 276.185872,341.450667 C272.896,352.16 242.764255,348.778667 241.674894,343.104 C241.674894,343.104 239.833872,339.381333 240.87966,336.192" id="Fill-480" fill="#E4E1D3"></path>
                <path d="M277.090043,339.509333 C272.296851,341.013333 265.913191,341.888 260.128681,341.888 C254.34417,341.888 247.960511,341.013333 243.167319,339.509333 C238.385021,338.005333 240.781617,341.76 240.781617,341.76 C240.781617,341.76 244.365617,346.026667 243.766468,352.789333 C243.167319,359.552 240.781617,360.053333 243.374298,363.061333 C244.921191,364.864 252.350638,366.176 260.128681,366.453333 C267.906723,366.72 275.347064,364.864 276.893957,363.061333 C279.486638,360.053333 277.090043,359.552 276.490894,352.789333 C275.891745,346.026667 279.486638,341.76 279.486638,341.76 C279.486638,341.76 281.87234,338.005333 277.090043,339.509333" id="Fill-481" fill="#E4E1D3"></path>
                <path d="M225.367149,308.992 C225.367149,308.992 223.613277,309.354667 223.613277,313.194667 C223.613277,317.045333 224.201532,318.506667 230.029617,318.688 C235.846809,318.869333 240.36766,319.232 248.526979,325.28 C256.675404,331.317333 258.712511,309.173333 249.97583,308.992 C241.239149,308.810667 225.367149,308.992 225.367149,308.992" id="Fill-482" fill="#E4E1D3"></path>
                <path d="M294.890213,308.992 C294.890213,308.992 296.644085,309.354667 296.644085,313.194667 C296.644085,317.045333 296.05583,318.506667 290.238638,318.688 C284.410553,318.869333 279.889702,319.232 271.741277,325.28 C263.581957,331.317333 261.544851,309.173333 270.281532,308.992 C279.018213,308.810667 294.890213,308.992 294.890213,308.992" id="Fill-483" fill="#E4E1D3"></path>
                <path d="M241.380766,307.712 C242.404766,304.597333 250.400681,305.696 260.019745,306.058667 C269.638809,306.432 278.963745,302.4 275.761021,312.832 C272.558298,323.264 243.221787,319.968 242.165106,314.442667 C242.165106,314.442667 240.36766,310.816 241.380766,307.712" id="Fill-484" fill="#E4E1D3"></path>
                <path d="M276.643404,310.944 C271.980936,312.405333 265.760681,313.258667 260.128681,313.258667 C254.496681,313.258667 248.276426,312.405333 243.613957,310.944 C238.962383,309.472 241.293617,313.141333 241.293617,313.141333 C241.293617,313.141333 244.779574,317.28 244.202213,323.872 C243.613957,330.464 241.293617,330.944 243.810043,333.877333 C245.324255,335.626667 252.557617,336.906667 260.128681,337.173333 C267.699745,337.429333 274.944,335.626667 276.447319,333.877333 C278.974638,330.944 276.643404,330.464 276.055149,323.872 C275.477787,317.28 278.974638,313.141333 278.974638,313.141333 C278.974638,313.141333 281.305872,309.472 276.643404,310.944" id="Fill-485" fill="#E4E1D3"></path>
                <path d="M226.304,282.176 C226.304,282.176 224.604596,282.528 224.604596,286.272 C224.604596,290.005333 225.171064,291.434667 230.846638,291.616 C236.511319,291.786667 240.901447,292.149333 248.842894,298.016 C256.773447,303.893333 258.756085,282.357333 250.259064,282.176 C241.751149,281.994667 226.304,282.176 226.304,282.176" id="Fill-486" fill="#E4E1D3"></path>
                <path d="M293.953362,282.176 C293.953362,282.176 295.652766,282.528 295.652766,286.272 C295.652766,290.005333 295.086298,291.434667 289.421617,291.616 C283.746043,291.786667 279.355915,292.149333 271.425362,298.016 C263.483915,303.893333 261.501277,282.357333 270.009191,282.176 C278.506213,281.994667 293.953362,282.176 293.953362,282.176" id="Fill-487" fill="#E4E1D3"></path>
                <path d="M241.892766,280.928 C242.884085,277.909333 250.673021,278.976 260.030638,279.328 C269.388255,279.68 278.451745,275.765333 275.33617,285.92 C272.220596,296.064 243.679319,292.853333 242.644426,287.477333 C242.644426,287.477333 240.901447,283.957333 241.892766,280.928" id="Fill-488" fill="#E4E1D3"></path>
                <path d="M276.196766,284.074667 C271.654128,285.504 265.60817,286.336 260.128681,286.336 C254.649191,286.336 248.603234,285.504 244.071489,284.074667 C239.528851,282.656 241.805617,286.208 241.805617,286.208 C241.805617,286.208 245.204426,290.250667 244.637957,296.661333 C244.071489,303.061333 241.805617,303.541333 244.256681,306.389333 C245.716426,308.085333 252.764596,309.333333 260.128681,309.589333 C267.492766,309.845333 274.540936,308.085333 276.000681,306.389333 C278.462638,303.541333 276.196766,303.061333 275.630298,296.661333 C275.06383,290.250667 278.462638,286.208 278.462638,286.208 C278.462638,286.208 280.728511,282.656 276.196766,284.074667" id="Fill-489" fill="#E4E1D3"></path>
                <path d="M227.251745,255.370667 C227.251745,255.370667 225.595915,255.712 225.595915,259.349333 C225.595915,262.976 226.151489,264.362667 231.66366,264.533333 C237.164936,264.714667 241.435234,265.056 249.147915,270.762667 C256.860596,276.48 258.79966,255.541333 250.531404,255.370667 C242.263149,255.189333 227.251745,255.370667 227.251745,255.370667" id="Fill-490" fill="#E4E1D3"></path>
                <path d="M293.005617,255.370667 C293.005617,255.370667 294.661447,255.712 294.661447,259.349333 C294.661447,262.976 294.105872,264.362667 288.593702,264.533333 C283.092426,264.714667 278.822128,265.056 271.109447,270.762667 C263.396766,276.48 261.468596,255.541333 269.725957,255.370667 C277.994213,255.189333 293.005617,255.370667 293.005617,255.370667" id="Fill-491" fill="#E4E1D3"></path>
                <path d="M242.404766,254.154667 C243.363404,251.210667 250.934468,252.245333 260.030638,252.597333 C269.126809,252.938667 277.939745,249.130667 274.911319,258.997333 C271.882894,268.864 244.147745,265.749333 243.134638,260.522667 C243.134638,260.522667 241.435234,257.098667 242.404766,254.154667" id="Fill-492" fill="#E4E1D3"></path>
                <path d="M275.739234,257.216 C271.338213,258.592 265.45566,259.402667 260.128681,259.402667 C254.801702,259.402667 248.919149,258.592 244.518128,257.216 C240.106213,255.829333 242.306723,259.285333 242.306723,259.285333 C242.306723,259.285333 245.618383,263.210667 245.062809,269.44 C244.518128,275.669333 242.306723,276.128 244.703319,278.901333 C246.119489,280.554667 252.971574,281.770667 260.128681,282.016 C267.296681,282.261333 274.137872,280.554667 275.564936,278.901333 C277.950638,276.128 275.739234,275.669333 275.194553,269.44 C274.638979,263.210667 277.950638,259.285333 277.950638,259.285333 C277.950638,259.285333 280.151149,255.829333 275.739234,257.216" id="Fill-493" fill="#E4E1D3"></path>
                <path d="M228.199489,228.554667 C228.199489,228.554667 226.587234,228.885333 226.587234,232.416 C226.587234,235.946667 227.131915,237.290667 232.480681,237.461333 C237.829447,237.632 241.979915,237.962667 249.46383,243.509333 C256.958638,249.056 258.83234,228.725333 250.803745,228.554667 C242.775149,228.384 228.199489,228.554667 228.199489,228.554667" id="Fill-494" fill="#E4E1D3"></path>
                <path d="M292.057872,228.554667 C292.057872,228.554667 293.670128,228.885333 293.670128,232.416 C293.670128,235.946667 293.13634,237.290667 287.776681,237.461333 C282.427915,237.632 278.28834,237.962667 270.793532,243.509333 C263.298723,249.056 261.425021,228.725333 269.453617,228.554667 C277.482213,228.384 292.057872,228.554667 292.057872,228.554667" id="Fill-495" fill="#E4E1D3"></path>
                <path d="M242.916766,227.381333 C243.853617,224.522667 251.195915,225.525333 260.030638,225.866667 C268.865362,226.197333 277.427745,222.506667 274.486468,232.085333 C271.545191,241.664 244.605277,238.634667 243.624851,233.557333 C243.624851,233.557333 241.979915,230.24 242.916766,227.381333" id="Fill-496" fill="#E4E1D3"></path>
                <path d="M275.292596,230.346667 C271.011404,231.690667 265.303149,232.48 260.128681,232.48 C254.954213,232.48 249.245957,231.690667 244.964766,230.346667 C240.683574,229.002667 242.818723,232.362667 242.818723,232.362667 C242.818723,232.362667 246.03234,236.170667 245.498553,242.229333 C244.964766,248.277333 242.818723,248.725333 245.139064,251.413333 C246.522553,253.013333 253.178553,254.197333 260.128681,254.442667 C267.089702,254.677333 273.734809,253.013333 275.118298,251.413333 C277.438638,248.725333 275.292596,248.277333 274.758809,242.229333 C274.225021,236.170667 277.438638,232.362667 277.438638,232.362667 C277.438638,232.362667 279.573787,229.002667 275.292596,230.346667" id="Fill-497" fill="#E4E1D3"></path>
                <path d="M229.13634,203.445333 C229.13634,203.445333 227.578553,203.776 227.578553,207.2 C227.578553,210.624 228.101447,211.925333 233.297702,212.085333 C238.493957,212.256 242.513702,212.576 249.779745,217.962667 C257.056681,223.349333 258.875915,203.605333 251.086979,203.445333 C243.287149,203.285333 229.13634,203.445333 229.13634,203.445333" id="Fill-498" fill="#E4E1D3"></path>
                <path d="M291.121021,203.445333 C291.121021,203.445333 292.678809,203.776 292.678809,207.2 C292.678809,210.624 292.155915,211.925333 286.95966,212.085333 C281.774298,212.256 277.74366,212.576 270.477617,217.962667 C263.200681,223.349333 261.39234,203.605333 269.181277,203.445333 C276.970213,203.285333 291.121021,203.445333 291.121021,203.445333" id="Fill-499" fill="#E4E1D3"></path>
                <path d="M243.417872,202.304 C244.332936,199.530667 251.457362,200.512 260.030638,200.832 C268.603915,201.162667 276.915745,197.568 274.061617,206.869333 C271.207489,216.170667 245.062809,213.226667 244.115064,208.298667 C244.115064,208.298667 242.513702,205.077333 243.417872,202.304" id="Fill-500" fill="#E4E1D3"></path>
                <path d="M274.845957,205.184 C270.695489,206.485333 265.150638,207.253333 260.128681,207.253333 C255.106723,207.253333 249.561872,206.485333 245.411404,205.184 C241.260936,203.882667 243.330723,207.146667 243.330723,207.146667 C243.330723,207.146667 246.446298,210.837333 245.934298,216.714667 C245.411404,222.581333 243.330723,223.018667 245.585702,225.632 C246.925617,227.189333 253.374638,228.330667 260.128681,228.565333 C266.882723,228.8 273.331745,227.189333 274.67166,225.632 C276.926638,223.018667 274.845957,222.581333 274.323064,216.714667 C273.811064,210.837333 276.926638,207.146667 276.926638,207.146667 C276.926638,207.146667 278.996426,203.882667 274.845957,205.184" id="Fill-501" fill="#E4E1D3"></path>
                <path d="M230.084085,178.336 C230.084085,178.336 228.569872,178.656 228.569872,181.973333 C228.569872,185.290667 229.081872,186.56 234.114723,186.72 C239.147574,186.88 243.047489,187.189333 250.09566,192.405333 C257.14383,197.632 258.908596,178.496 251.359319,178.336 C243.810043,178.176 230.084085,178.336 230.084085,178.336" id="Fill-502" fill="#E4E1D3"></path>
                <path d="M290.173277,178.336 C290.173277,178.336 291.687489,178.656 291.687489,181.973333 C291.687489,185.290667 291.186383,186.56 286.142638,186.72 C281.109787,186.88 277.209872,187.189333 270.161702,192.405333 C263.113532,197.632 261.348766,178.496 268.898043,178.336 C276.458213,178.176 290.173277,178.336 290.173277,178.336" id="Fill-503" fill="#E4E1D3"></path>
                <path d="M243.929872,177.226667 C244.812255,174.538667 251.729702,175.488 260.041532,175.808 C268.353362,176.117333 276.403745,172.64 273.636766,181.653333 C270.869787,190.666667 245.52034,187.818667 244.594383,183.04 C244.594383,183.04 243.047489,179.914667 243.929872,177.226667" id="Fill-504" fill="#E4E1D3"></path>
                <path d="M274.399319,180.021333 C270.368681,181.290667 264.998128,182.026667 260.128681,182.026667 C255.259234,182.026667 249.888681,181.290667 245.858043,180.021333 C241.838298,178.752 243.842723,181.92 243.842723,181.92 C243.842723,181.92 246.871149,185.504 246.359149,191.2 C245.858043,196.896 243.842723,197.312 246.03234,199.84 C247.328681,201.354667 253.581617,202.464 260.128681,202.688 C266.675745,202.922667 272.928681,201.354667 274.235915,199.84 C276.414638,197.312 274.399319,196.896 273.898213,191.2 C273.386213,185.504 276.414638,181.92 276.414638,181.92 C276.414638,181.92 278.429957,178.752 274.399319,180.021333" id="Fill-505" fill="#E4E1D3"></path>
                <path d="M231.03183,154.933333 C231.03183,154.933333 229.561191,155.232 229.561191,158.453333 C229.561191,161.664 230.051404,162.890667 234.931745,163.050667 C239.812085,163.2 243.581277,163.509333 250.411574,168.565333 C257.241872,173.621333 258.95217,155.082667 251.63166,154.933333 C244.322043,154.773333 231.03183,154.933333 231.03183,154.933333" id="Fill-506" fill="#E4E1D3"></path>
                <path d="M289.225532,154.933333 C289.225532,154.933333 290.69617,155.232 290.69617,158.453333 C290.69617,161.664 290.205957,162.890667 285.325617,163.050667 C280.45617,163.2 276.676085,163.509333 269.845787,168.565333 C263.015489,173.621333 261.316085,155.082667 268.625702,154.933333 C275.946213,154.773333 289.225532,154.933333 289.225532,154.933333" id="Fill-507" fill="#E4E1D3"></path>
                <path d="M244.441872,153.856 C245.291574,151.253333 251.991149,152.170667 260.041532,152.48 C268.091915,152.789333 275.891745,149.418667 273.211915,158.144 C270.532085,166.88 245.977872,164.117333 245.084596,159.488 C245.084596,159.488 243.581277,156.458667 244.441872,153.856" id="Fill-508" fill="#E4E1D3"></path>
                <path d="M273.952681,156.565333 C270.052766,157.792 264.845617,158.506667 260.128681,158.506667 C255.411745,158.506667 250.215489,157.792 246.304681,156.565333 C242.404766,155.338667 244.354723,158.4 244.354723,158.4 C244.354723,158.4 247.285106,161.877333 246.794894,167.392 C246.304681,172.906667 244.354723,173.312 246.468085,175.765333 C247.731745,177.226667 253.788596,178.293333 260.128681,178.517333 C266.468766,178.741333 272.525617,177.226667 273.789277,175.765333 C275.902638,173.312 273.952681,172.906667 273.462468,167.392 C272.972255,161.877333 275.902638,158.4 275.902638,158.4 C275.902638,158.4 277.852596,155.338667 273.952681,156.565333" id="Fill-509" fill="#E4E1D3"></path>
                <path d="M231.968681,131.52 C231.968681,131.52 230.552511,131.818667 230.552511,134.933333 C230.552511,138.048 231.03183,139.232 235.748766,139.381333 C240.465702,139.530667 244.125957,139.818667 250.727489,144.714667 C257.329021,149.6 258.984851,131.669333 251.904,131.52 C244.834043,131.370667 231.968681,131.52 231.968681,131.52" id="Fill-510" fill="#E4E1D3"></path>
                <path d="M288.288681,131.52 C288.288681,131.52 289.704851,131.818667 289.704851,134.933333 C289.704851,138.048 289.225532,139.232 284.508596,139.381333 C279.79166,139.530667 276.131404,139.818667 269.529872,144.714667 C262.92834,149.6 261.272511,131.669333 268.353362,131.52 C275.434213,131.370667 288.288681,131.52 288.288681,131.52" id="Fill-511" fill="#E4E1D3"></path>
                <path d="M244.953872,130.485333 C245.770894,127.968 252.252596,128.853333 260.041532,129.152 C267.830468,129.450667 275.379745,126.186667 272.787064,134.634667 C270.194383,143.082667 246.435404,140.416 245.574809,135.936 C245.574809,135.936 244.125957,133.002667 244.953872,130.485333" id="Fill-512" fill="#E4E1D3"></path>
                <path d="M273.506043,133.098667 C269.725957,134.293333 264.693106,134.976 260.128681,134.976 C255.564255,134.976 250.531404,134.293333 246.762213,133.098667 C242.982128,131.914667 244.866723,134.88 244.866723,134.88 C244.866723,134.88 247.699064,138.24 247.230638,143.573333 C246.762213,148.906667 244.866723,149.312 246.914723,151.68 C248.134809,153.088 253.995574,154.133333 260.128681,154.346667 C266.261787,154.56 272.122553,153.088 273.342638,151.68 C275.390638,149.312 273.506043,148.906667 273.026723,143.573333 C272.558298,138.24 275.390638,134.88 275.390638,134.88 C275.390638,134.88 277.275234,131.914667 273.506043,133.098667" id="Fill-513" fill="#E4E1D3"></path>
                <path d="M232.916426,109.813333 C232.916426,109.813333 231.54383,110.101333 231.54383,113.109333 C231.54383,116.117333 232.001362,117.269333 236.565787,117.408 C241.130213,117.557333 244.659745,117.834667 251.043404,122.570667 C257.427064,127.296 259.028426,109.962667 252.187234,109.813333 C245.346043,109.674667 232.916426,109.813333 232.916426,109.813333" id="Fill-514" fill="#E4E1D3"></path>
                <path d="M287.340936,109.813333 C287.340936,109.813333 288.713532,110.101333 288.713532,113.109333 C288.713532,116.117333 288.256,117.269333 283.691574,117.408 C279.138043,117.557333 275.597617,117.834667 269.213957,122.570667 C262.830298,127.296 261.23983,109.962667 268.081021,109.813333 C274.911319,109.674667 287.340936,109.813333 287.340936,109.813333" id="Fill-515" fill="#E4E1D3"></path>
                <path d="M245.454979,108.810667 C246.261106,106.378667 252.514043,107.242667 260.041532,107.530667 C267.579915,107.808 274.867745,104.661333 272.362213,112.821333 C269.856681,120.992 246.892936,118.410667 246.065021,114.08 C246.065021,114.08 244.659745,111.253333 245.454979,108.810667" id="Fill-516" fill="#E4E1D3"></path>
                <path d="M273.048511,111.349333 C269.410043,112.490667 264.540596,113.162667 260.128681,113.162667 C255.716766,113.162667 250.858213,112.490667 247.208851,111.349333 C243.559489,110.197333 245.378723,113.066667 245.378723,113.066667 C245.378723,113.066667 248.113021,116.309333 247.666383,121.472 C247.208851,126.624 245.378723,127.008 247.361362,129.301333 C248.537872,130.666667 254.202553,131.669333 260.128681,131.882667 C266.054809,132.085333 271.719489,130.666667 272.906894,129.301333 C274.878638,127.008 273.048511,126.624 272.601872,121.472 C272.14434,116.309333 274.878638,113.066667 274.878638,113.066667 C274.878638,113.066667 276.697872,110.197333 273.048511,111.349333" id="Fill-517" fill="#E4E1D3"></path>
                <path d="M233.86417,88.1173333 C233.86417,88.1173333 232.535149,88.3946667 232.535149,91.296 C232.535149,94.1973333 232.981787,95.3066667 237.382809,95.4453333 C241.78383,95.584 245.193532,95.8613333 251.359319,100.416 C257.525106,104.981333 259.061106,88.256 252.459574,88.1173333 C245.858043,87.9786667 233.86417,88.1173333 233.86417,88.1173333" id="Fill-518" fill="#E4E1D3"></path>
                <path d="M286.393191,88.1173333 C286.393191,88.1173333 287.722213,88.3946667 287.722213,91.296 C287.722213,94.1973333 287.275574,95.3066667 282.874553,95.4453333 C278.473532,95.584 275.06383,95.8613333 268.898043,100.416 C262.732255,104.981333 261.196255,88.256 267.797787,88.1173333 C274.399319,87.9786667 286.393191,88.1173333 286.393191,88.1173333" id="Fill-519" fill="#E4E1D3"></path>
                <path d="M245.966979,87.1466667 C246.740426,84.8 252.786383,85.6213333 260.052426,85.8986667 C267.318468,86.176 274.355745,83.136 271.937362,91.0186667 C269.518979,98.9013333 247.361362,96.4053333 246.555234,92.2346667 C246.555234,92.2346667 245.193532,89.4933333 245.966979,87.1466667" id="Fill-520" fill="#E4E1D3"></path>
                <path d="M272.601872,89.5893333 C269.083234,90.6986667 264.388085,91.3386667 260.128681,91.3386667 C255.869277,91.3386667 251.174128,90.6986667 247.655489,89.5893333 C244.136851,88.48 245.890723,91.2426667 245.890723,91.2426667 C245.890723,91.2426667 248.537872,94.3786667 248.091234,99.36 C247.655489,104.341333 245.890723,104.704 247.797106,106.922667 C248.940936,108.234667 254.409532,109.205333 260.128681,109.408 C265.84783,109.610667 271.316426,108.234667 272.460255,106.922667 C274.366638,104.704 272.601872,104.341333 272.166128,99.36 C271.719489,94.3786667 274.366638,91.2426667 274.366638,91.2426667 C274.366638,91.2426667 276.131404,88.48 272.601872,89.5893333" id="Fill-521" fill="#E4E1D3"></path>
                <path d="M349.717787,340.629333 C358.51983,340.874667 369.162894,333.76 378.749277,323.925333 C381.287489,321.333333 383.575149,318.592 385.623149,315.765333 C391.178894,309.674667 391.854298,297.813333 387.028426,290.378667 C381.385532,315.562667 356.929362,330.848 349.717787,331.136 C338.290383,331.648 322.897702,321.674667 323.257191,317.632 C323.616681,313.6 329.815149,315.818667 342.179404,312.458667 C355.317106,308.981333 374.805787,300.501333 387.006638,279.978667 C391.178894,274.762667 390.77583,264.48 385.949957,257.024 C378.662128,286.677333 357.430468,298.592 339.652085,303.296 C324.684255,306.432 302.570213,294.165333 305.576851,282.976 C305.631319,282.997333 323.932596,288.277333 334.412255,284.736 C353.214638,278.826667 374.402723,266.208 385.154723,247.402667 C390.100426,238.325333 383.782128,219.285333 381.450894,221.984 C380.906213,249.408 354.293106,268.469333 331.122383,274.698667 C306.306723,281.354667 275.009362,247.925333 281.196936,243.424 C294.247489,249.376 307.613957,258.442667 323.518638,254.378667 C347.615319,249.173333 370.916766,235.818667 381.418213,216.106667 C384.849702,206.048 383.041362,193.205333 375.851574,190.538667 C377.997617,218.165333 350.741787,237.685333 320.958638,243.061333 C298.779234,247.061333 276.109617,224.362667 277.100936,219.637333 C278.76766,215.765333 291.95983,222.517333 309.618383,221.109333 C333.856681,219.178667 362.049362,204.8 373.901617,184.010667 C376.43983,177.258667 372.812255,170.602667 368.411234,168.746667 C364.565787,191.210667 336.307745,207.626667 309.030128,210.602667 C298.953532,211.968 272.754383,204.501333 272.754383,196.544 C272.754383,188.48 290.18417,192.970667 303.997277,188.821333 C304.00817,188.821333 354.565447,176.085333 362.790128,159.136 L363.509106,157.525333 C365.208511,151.306667 359.69634,141.749333 353.91183,139.392 C355.524085,145.44 355.306213,150.346667 353.214638,154.314667 C347.713362,164.810667 302.679149,178.197333 300.870809,178.730667 C283.800511,183.242667 273.157447,178.72 272.754383,173.365333 C271.414468,165.76 290.271319,162.602667 296.818383,161.002667 C325.544851,154.805333 343.061787,145.44 348.868085,133.162667 L349.347404,132.053333 C350.404085,124.032 344.347234,116.714667 338.301277,116.48 C340.556255,121.045333 340.828596,125.066667 339.096511,128.736 C336.122553,135.008 325.980596,143.925333 294.498043,150.709333 L293.659234,150.901333 C284.998809,152.704 273.146553,150.090667 272.754383,144.896 C271.414468,137.301333 289.574128,132.213333 297.123404,131.125333 C315.479149,128.053333 326.710468,120.042667 330.675745,107.210667 C330.022128,102.229333 326.862979,99.3386667 323.485957,99.3386667 C322.058894,112.234667 312.962723,118.965333 295.325957,121.813333 L294.269277,121.984 C280.870128,124.437333 271.675915,110.08 259.573106,110.165333 C247.459404,110.08 238.265191,124.437333 224.866043,121.984 L223.809362,121.813333 C206.172596,118.965333 197.076426,112.234667 195.649362,99.3386667 C192.283234,99.3386667 189.113191,102.229333 188.470468,107.210667 C192.435745,120.042667 203.667064,128.053333 222.011915,131.125333 C229.561191,132.213333 247.731745,137.301333 246.380936,144.896 C245.988766,150.090667 234.147404,152.704 225.476085,150.901333 L224.637277,150.709333 C193.154723,143.925333 183.012766,135.008 180.038809,128.736 C178.306723,125.066667 178.579064,121.045333 180.834043,116.48 C174.788085,116.714667 168.731234,124.032 169.787915,132.053333 L170.278128,133.162667 C176.084426,145.44 193.590468,154.805333 222.32783,161.002667 C228.874894,162.602667 247.731745,165.76 246.380936,173.365333 C245.977872,178.72 235.334809,183.242667 218.264511,178.730667 C216.45617,178.197333 171.421957,164.810667 165.920681,154.314667 C163.84,150.346667 163.611234,145.44 165.223489,139.392 C159.449872,141.749333 153.926809,151.306667 155.626213,157.525333 L156.345191,159.136 C164.569872,176.085333 215.138043,188.821333 215.138043,188.821333 C228.951149,192.970667 246.380936,188.48 246.380936,196.544 C246.380936,204.501333 220.192681,211.968 210.105191,210.602667 C182.838468,207.626667 154.569532,191.210667 150.724085,168.746667 C146.333957,170.602667 142.695489,177.258667 145.233702,184.010667 C157.096851,204.8 185.278638,219.178667 209.516936,221.109333 C227.175489,222.517333 240.378553,215.765333 242.034383,219.637333 C243.036596,224.362667 220.366979,247.061333 198.176681,243.061333 C168.393532,237.685333 141.148596,218.165333 143.283745,190.538667 C136.104851,193.205333 134.285617,206.048 137.728,216.106667 C148.229447,235.818667 171.530894,249.173333 195.627574,254.378667 C211.532255,258.442667 224.898723,249.376 237.949277,243.424 C244.125957,247.925333 212.828596,281.354667 188.012936,274.698667 C164.853106,268.469333 138.229106,249.408 137.684426,221.984 C135.364085,219.285333 129.034894,238.325333 133.991489,247.402667 C144.732596,266.208 165.920681,278.826667 184.733957,284.736 C195.213617,288.277333 213.514894,282.997333 213.569362,282.976 C216.576,294.165333 194.451064,306.432 179.483234,303.296 C161.715745,298.592 140.473191,286.677333 133.196255,257.024 C128.370383,264.48 127.967319,274.762667 132.139574,279.978667 C144.329532,300.501333 163.818213,308.981333 176.955915,312.458667 C189.331064,315.818667 195.518638,313.6 195.878128,317.632 C196.237617,321.674667 180.85583,331.648 169.417532,331.136 C162.205957,330.848 137.760681,315.562667 132.117787,290.378667 C127.291915,297.813333 127.967319,309.674667 133.51217,315.765333 C135.571064,318.592 137.858723,321.333333 140.386043,323.925333 C149.972426,333.76 160.626383,340.874667 169.417532,340.629333 C174.886128,340.821333 184.418043,338.058667 185.420255,340.650667 C187.795064,346.773333 172.413277,358.890667 162.685277,356.522667 C153.915915,353.738667 143.338213,346.88 136.061277,334.282667 C131.997957,339.84 135.364085,346.357333 139.765106,351.338667 C146.660766,358.154667 154.340766,362.453333 161.04034,364.469333 C165.920681,365.909333 174.221617,365.056 174.221617,368.224 C174.221617,371.381333 163.633021,385.696 153.000851,372.448 C146.845957,364.768 146.432,362.250667 143.730383,364.938667 C141.682383,374.229333 149.721872,381.685333 153.534638,390.016 C157.445447,398.549333 163.491404,393.792 170.757447,385.450667 C181.171745,373.504 238.221617,262.837333 259.573106,262.837333 C280.924596,262.837333 337.974468,373.504 348.377872,385.450667 C355.643915,393.792 361.689872,398.549333 365.600681,390.016 C369.42434,381.685333 377.452936,374.229333 375.41583,364.938667 C372.703319,362.250667 372.300255,364.768 366.145362,372.448 C355.513191,385.696 344.913702,371.381333 344.913702,368.224 C344.913702,365.056 353.225532,365.909333 358.094979,364.469333 C364.794553,362.453333 372.474553,358.154667 379.381106,351.338667 C383.782128,346.357333 387.137362,339.84 383.074043,334.282667 C375.808,346.88 365.219404,353.738667 356.450043,356.522667 C346.722043,358.890667 331.340255,346.773333 333.715064,340.650667 C334.717277,338.058667 344.249191,340.821333 349.717787,340.629333" id="Fill-522" fill="#E4E1D3"></path>
            </g>
        </g>
    </g>
</svg>